<svg xmlns="http://www.w3.org/2000/svg" viewBox="0 0 1200 900" width="1200" height="900" role="img" aria-hidden="true">
  <defs>
    <linearGradient id="gtower" gradientTransform="rotate(29.3)">
      <stop offset="0" stop-color="#F7F3EC"/><stop offset="1" stop-color="#EBE4D8"/>
    </linearGradient>
    <linearGradient id="ltower" x1="0" y1="0" x2="0.4" y2="1">
      <stop offset="0" stop-color="#FFFDF8" stop-opacity=".85"/>
      <stop offset="1" stop-color="#FFFDF8" stop-opacity="0"/>
    </linearGradient>
    <filter id="ntower" x="0" y="0" width="100%" height="100%">
      <feTurbulence type="fractalNoise" baseFrequency="0.9" numOctaves="3" stitchTiles="stitch"/>
      <feColorMatrix type="saturate" values="0"/>
    </filter>
  </defs>
  <rect width="1200" height="900" fill="url(#gtower)"/>
  <g opacity=".55"><path d="M302.45475568436086 0 L614.4547556843609 0 L926.4547556843609 900 L374.45475568436086 900 Z" fill="url(#ltower)"/></g>
  
  
  <g transform="translate(213.0 63.0) scale(7.7400)" opacity="0.3"><path d="M20 82 H80 M20 82 V22 M80 82 V22 M20 22 H80" fill="none" stroke="#26241F" stroke-width="0.55" stroke-linecap="round" stroke-linejoin="round"/><path d="M20 40 H80 M20 56 H80" fill="none" stroke="#26241F" stroke-width="0.55" stroke-linecap="round" stroke-linejoin="round"/><path d="M32 22 V40 M68 22 V40" fill="none" stroke="#26241F" stroke-width="0.55" stroke-linecap="round" stroke-linejoin="round"/><path d="M34 40 L34.00 38.60 L34.00 41.40 L34.00 38.60 L34.00 41.40 L34.00 38.60 L34.00 41.40 L34.00 38.60 L34.00 41.40 L34.00 38.60 L34.00 41.40 L34.001 40" fill="none" stroke="#26241F" stroke-width="0.4" stroke-linecap="round" stroke-linejoin="round"/><path d="M34 40 V52 M66 40 V52" fill="none" stroke="#26241F" stroke-width="0.4" stroke-linecap="round" stroke-linejoin="round"/><path d="M28 82 h44 v4 h-44 z" fill="none" stroke="#26241F" stroke-width="0.55" stroke-linecap="round" stroke-linejoin="round"/></g>
  <rect width="1200" height="900" filter="url(#ntower)" opacity=".07" style="mix-blend-mode:multiply"/>
  
</svg>